/vscmnt/brussel_pixiu_data/_data_brussel/112/vsc11236/PredSimResults/SUBJ07mtu3D/worker1.mot
version=1
nRows=7
nColumns=50
inDegrees=yes
endheader
                time	         pelvis_tilt	         pelvis_list	     pelvis_rotation	           pelvis_tx	           pelvis_ty	           pelvis_tz	       hip_flexion_r	     hip_adduction_r	      hip_rotation_r	        knee_angle_r	       ankle_angle_r	         mtp_angle_r	       hip_flexion_l	     hip_adduction_l	      hip_rotation_l	        knee_angle_l	       ankle_angle_l	         mtp_angle_l	    lumbar_extension	      lumbar_bending	     lumbar_rotation	 ercspn_r/activation	 intobl_r/activation	 extobl_r/activation	    abd_r/activation	    add_r/activation	hamstrings_r/activation	bifemsh_r/activation	glut_max_r/activation	iliopsoas_r/activation	rect_fem_r/activation	  vasti_r/activation	gastroc_r/activation	 soleus_r/activation	tib_ant_r/activation	 ercspn_l/activation	 intobl_l/activation	 extobl_l/activation	    abd_l/activation	    add_l/activation	hamstrings_l/activation	bifemsh_l/activation	glut_max_l/activation	iliopsoas_l/activation	rect_fem_l/activation	  vasti_l/activation	gastroc_l/activation	 soleus_l/activation	tib_ant_l/activation	
          0.00000000	         -5.92165245	         -4.01755750	          8.12653238	          0.00000000	          0.84784641	         -0.01057744	         29.80945284	          0.65969203	         -5.59818158	         -2.82602521	          7.42040936	          0.24714754	        -12.96515424	         -4.63331487	          3.96603049	         -7.85357947	          8.91223500	         26.59787285	         -6.68962680	          2.28265104	         -3.37169528	          0.09535201	          0.17531323	          0.02686568	          0.01297601	          0.11326868	          0.04137908	          0.19776211	          0.01000003	          0.06524356	          0.01000005	          0.01000001	          0.01198593	          0.01000000	          0.26962771	          0.04071451	          0.01000000	          0.01000001	          0.03437094	          0.02547175	          0.02303296	          0.13154699	          0.02781629	          0.32276598	          0.01000006	          0.01000001	          0.24829971	          0.24624633	          0.01822207	
          0.01115431	         -5.99082193	         -3.86186578	          7.97528072	          0.01587484	          0.84606035	         -0.01034260	         29.82349865	          0.83098063	         -4.68154834	         -4.45859468	          7.08179766	          0.24404143	        -13.00519207	         -4.45670954	          3.39069440	         -9.72913016	          8.23227200	         28.27591945	         -6.50439524	          2.70433042	         -3.49936615	          0.08040442	          0.14831047	          0.02265416	          0.01094187	          0.14651937	          0.04482905	          0.16676051	          0.06111433	          0.05501583	          0.01000002	          0.01000000	          0.02151668	          0.01671942	          0.27484473	          0.08461248	          0.01000000	          0.01000007	          0.02898288	          0.05697994	          0.02024647	          0.11092539	          0.02345575	          0.32694446	          0.01000002	          0.01000960	          0.20937570	          0.22909824	          0.01536554	
          0.02230861	         -6.04430450	         -3.71175385	          7.77012881	          0.03200043	          0.84442703	         -0.01006390	         29.66729519	          0.97763089	         -3.81057365	         -6.00069525	          6.69464919	          0.23603502	        -12.87952849	         -4.27652390	          2.76698513	        -11.96554130	          7.45065930	         29.86060429	         -6.30671532	          3.15112199	         -3.60159504	          0.08104571	          0.12506100	          0.01910284	          0.07975532	          0.14369452	          0.05237728	          0.14061880	          0.06941365	          0.04639143	          0.01000000	          0.00999999	          0.01814368	          0.01409845	          0.32138508	          0.10850388	          0.00999999	          0.01000001	          0.02443946	          0.04804765	          0.01707261	          0.09353649	          0.01977877	          0.31476778	          0.01000004	          0.01000002	          0.17655350	          0.19960029	          0.01295680	
          0.03346292	         -6.08377661	         -3.56100636	          7.51374771	          0.04816857	          0.84314009	         -0.00969904	         29.38744022	          1.13864078	         -3.03016371	         -7.32129281	          6.21334574	          0.22122211	        -12.51039672	         -4.09328019	          2.10579748	        -14.65748789	          6.52693260	         31.24270370	         -6.11835184	          3.60484354	         -3.67863044	          0.08866418	          0.10545617	          0.01610824	          0.12626144	          0.16338928	          0.04950413	          0.11857509	          0.10246349	          0.03911901	          0.01000001	          0.01000000	          0.01529944	          0.01188835	          0.34239774	          0.14746654	          0.00999999	          0.01000000	          0.02060828	          0.05468567	          0.01667779	          0.07887351	          0.01667821	          0.29736549	          0.01000002	          0.01000005	          0.14887658	          0.16831051	          0.01092567	
          0.04461723	         -6.10924063	         -3.41641891	          7.21158456	          0.06421175	          0.84235753	         -0.00925518	         29.05836511	          1.31938909	         -2.34442810	         -8.57745916	          5.81950929	          0.20743770	        -11.84940826	         -3.92158019	          1.39956601	        -17.84893440	          5.45205629	         32.20970750	         -5.95133733	          4.06899441	         -3.73072896	          0.08587475	          0.08892463	          0.01358308	          0.15239650	          0.17048428	          0.04580837	          0.09998701	          0.11496217	          0.03298663	          0.01000001	          0.03412185	          0.01290107	          0.01002471	          0.36342061	          0.17381486	          0.00999999	          0.01000000	          0.01737768	          0.06612161	          0.01406344	          0.06650913	          0.01406370	          0.26540273	          0.01000000	          0.01000000	          0.12553836	          0.14192578	          0.00999999	
          0.05577153	         -6.12142852	         -3.27495724	          6.86531526	          0.08003498	          0.84218687	         -0.00874684	         28.68996513	          1.50805854	         -1.75578366	         -9.77908726	          5.55468965	          0.19237515	        -10.88189381	         -3.77028130	          0.63432250	        -21.52864159	          4.21067321	         32.52600663	         -5.81128480	          4.53655705	         -3.75729421	          0.07241293	          0.07498461	          0.01145377	          0.16090383	          0.14625938	          0.04797125	          0.08431283	          0.10568303	          0.02781557	          0.01000001	          0.09728789	          0.01087868	          0.01000002	          0.36931286	          0.18820717	          0.01000000	          0.01000000	          0.01465351	          0.07562540	          0.01185887	          0.05608302	          0.01185904	          0.22379761	          0.01000000	          0.00999999	          0.10585869	          0.11967718	          0.00999999	
          0.06692584	         -6.12308701	         -3.12778196	          6.47466839	          0.09557608	          0.84272457	         -0.00819804	         28.23336938	          1.69082238	         -1.24778976	        -10.82940210	          5.45056074	          0.17759198	         -9.61870860	         -3.64349532	         -0.18645782	        -25.61011885	          2.66579781	         32.14065805	         -5.70274637	          4.99593475	         -3.75755743	          0.06106132	          0.06322985	          0.01000000	          0.16178192	          0.12333144	          0.04859669	          0.07109578	          0.09651338	          0.02345514	          0.01000001	          0.14692903	          0.01000001	          0.01000002	          0.36486177	          0.19219840	          0.00999999	          0.01000000	          0.01235640	          0.09241834	          0.01000003	          0.04729137	          0.00999999	          0.18871461	          0.01000000	          0.00999999	          0.08926405	          0.10091632	          0.01595646	
